<?xml version="1.0" encoding="utf-8" standalone="no"?>
<!DOCTYPE svg PUBLIC "-//W3C//DTD SVG 1.1//EN" "http://www.w3.org/Graphics/SVG/1.1/DTD/svg11.dtd">
<svg version="1.1" width="595.32pt" height="841.92pt" viewBox="0 0 595.32 841.92" overflow="visible" xmlns="http://www.w3.org/2000/svg">
  <path d="M195.1921,516.3344 C195.382,518.2078 193.2584,520.3314 191.385,520.1415 C189.5117,520.3314 187.3881,518.2078 187.578,516.3344 C187.3881,514.4611 189.5117,512.3375 191.385,512.5273 C193.2584,512.3375 195.382,514.4611 195.1921,516.3344 z" stroke="#000000" stroke-width="0.12" fill="none" />
  <path d="M147.4153,495.1821 C147.6052,497.0554 145.4816,499.179 143.6082,498.9891 C141.7349,499.179 139.6113,497.0554 139.8012,495.1821 C139.6113,493.3087 141.7349,491.1851 143.6082,491.375 C145.4816,491.1851 147.6052,493.3087 147.4153,495.1821 z" stroke="#000000" stroke-width="0.12" fill="none" />
  <path d="M136.0952,329.1554 L136.0952,495.761 C135.9934,498.1991 137.7652,500.9213 140.0358,501.8152 L189.5952,523.7567 C191.5094,524.6665 194.1429,524.4551 195.8874,523.2516 C197.694,522.1436 198.9535,519.8212 198.8965,517.7026 L198.8965,511.2383 L198.8965,329.1554 C199.2268,325.8974 195.5335,322.2041 192.2756,322.5344 L142.7162,322.5344 C139.4582,322.2041 135.7649,325.8974 136.0952,329.1554 z" stroke="#000000" stroke-width="0.12" fill="none" />
</svg>