<?xml version="1.0" encoding="utf-8" standalone="no"?>
<!DOCTYPE svg PUBLIC "-//W3C//DTD SVG 1.1//EN" "http://www.w3.org/Graphics/SVG/1.1/DTD/svg11.dtd">
<svg version="1.1" width="595.32pt" height="841.92pt" viewBox="0 0 595.32 841.92" overflow="visible" xmlns="http://www.w3.org/2000/svg">
  <path d="M388.8865,495.1821 C388.6966,497.0554 390.8202,499.179 392.6935,498.9891 C394.5669,499.179 396.6905,497.0554 396.5006,495.1821 C396.6905,493.3087 394.5669,491.1851 392.6935,491.375 C390.8202,491.1851 388.6966,493.3087 388.8865,495.1821 z" stroke="#000000" stroke-width="0.12" fill="none" />
  <path d="M341.1097,516.3344 C340.9198,518.2078 343.0434,520.3314 344.9167,520.1415 C346.7901,520.3314 348.9137,518.2078 348.7238,516.3344 C348.9137,514.4611 346.7901,512.3375 344.9167,512.5273 C343.0434,512.3375 340.9198,514.4611 341.1097,516.3344 z" stroke="#000000" stroke-width="0.12" fill="none" />
  <path d="M337.4053,517.7026 L337.4053,511.2383 L337.4053,329.1554 C337.075,325.8974 340.7683,322.2041 344.0262,322.5344 L393.5856,322.5344 C396.8436,322.2041 400.5369,325.8974 400.2066,329.1554 L400.2066,483.0297 L400.2066,495.761 C400.3084,498.1991 398.5366,500.9213 396.266,501.8152 L346.7066,523.7567 C344.7924,524.6665 342.1589,524.4551 340.4144,523.2516 C338.6077,522.1436 337.3483,519.8212 337.4053,517.7026 z" stroke="#000000" stroke-width="0.12" fill="none" />
</svg>