<?xml version="1.0" encoding="utf-8"?>
<!-- Generator: Adobe Illustrator 22.0.0, SVG Export Plug-In . SVG Version: 6.00 Build 0)  -->
<svg version="1.1" id="Layer_1" xmlns="http://www.w3.org/2000/svg" xmlns:xlink="http://www.w3.org/1999/xlink" x="0px" y="0px"
	 width="390.8px" height="275.3px" viewBox="0 0 390.8 275.3" style="enable-background:new 0 0 390.8 275.3;" xml:space="preserve"
	>
<style type="text/css">
	.st0{fill:none;stroke:#191919;stroke-width:0.12;stroke-linecap:square;}
</style>
<g id="Part__Feature" transform="translate(110.355667,516.146962) scale(1,-1)">
	<path id="Part__Feature_f0000" class="st0" d="M56.5,325c-53.5,0-107,0-160.5,0c-1.5,0.2-2.4,1-2.6,2.6c0,54,0,108,0,162
		c0.2,1.5,1,2.4,2.6,2.6c35.1,0,70.3,0,105.4,0c0,3.6,0,7.3,0,10.9c0.2,1.5,1,2.4,2.6,2.6c17.1,0,34.3,0,51.4,0c0,1.4,0,2.8,0,4.2
		c0.2,1.5,1,2.4,2.6,2.6c18,0,36,0,54,0c1.5-0.2,2.4-1,2.6-2.6c0-1.4,0-2.8,0-4.2c17.1,0,34.3,0,51.4,0c1.5-0.2,2.4-1,2.6-2.6
		c0-1.4,0-2.8,0-4.2c17.1,0,34.3,0,51.4,0c1.5-0.2,2.4-1,2.6-2.6c0-49.2,0-98.5,0-147.7c0.1-1.1,0.6-1.9,1.5-2.3
		c17-7.5,34-15.1,51-22.6c1.3-0.8,1.8-1.9,1.3-3.4c-10.9-24.7-21.9-49.4-32.8-74.1c-0.8-1.3-1.9-1.8-3.4-1.3
		c-16.2,7.2-32.4,14.4-48.6,21.5c-0.3,0.1-0.5,0.1-0.8,0.2c-35.3,3.7-70.7,7.4-106,11.1c-0.9,0.1-1.5,0.5-1.9,1.3
		C74.1,294.3,65.3,309.6,56.5,325z M169.1,445.6c0.1,1.5-1.6,3.3-3.1,3.1c-1.5,0.1-3.3-1.6-3.1-3.1c-0.1-1.5,1.6-3.3,3.1-3.1
		C167.5,442.4,169.3,444.1,169.1,445.6z M169.1,334.3c0.1,1.5-1.6,3.3-3.1,3.1c-1.5,0.1-3.3-1.6-3.1-3.1c-0.1-1.5,1.6-3.3,3.1-3.1
		C167.5,331,169.2,332.7,169.1,334.3z M-46.9,435.5c0.1,1.5-1.6,3.3-3.1,3.1c-1.5,0.1-3.3-1.6-3.1-3.1c-0.1-1.5,1.6-3.3,3.1-3.1
		C-48.4,432.3-46.7,434-46.9,435.5z M-46.9,381.5c0.1,1.5-1.6,3.3-3.1,3.1c-1.5,0.1-3.3-1.6-3.1-3.1c-0.1-1.5,1.6-3.3,3.1-3.1
		C-48.4,378.3-46.7,380-46.9,381.5z M-96.8,481.3c0-0.1,0-0.3,0-0.4c0-12.3,0-24.6,0-36.9c0-0.2,0-0.4,0.1-0.6
		c0-0.2,0.1-0.3,0.2-0.4s0.2-0.2,0.4-0.3c0.1-0.1,0.3-0.1,0.4-0.1s0.3,0,0.4,0c12.3,0,24.6,0,36.9,0c0.2,0,0.4,0,0.6,0.1
		c0.2,0,0.3,0.1,0.4,0.2c0.1,0.1,0.2,0.2,0.3,0.4c0.1,0.1,0.1,0.3,0.1,0.4s0,0.3,0,0.4c0,12.3,0,24.6,0,36.9c0,0.2,0,0.4-0.1,0.6
		c0,0.2-0.1,0.3-0.2,0.4c-0.1,0.1-0.2,0.2-0.4,0.3c-0.1,0.1-0.3,0.1-0.4,0.1c-0.1,0-0.3,0-0.4,0c-12.3,0-24.6,0-36.9,0
		c-0.2,0-0.4,0-0.6-0.1c-0.2,0-0.3-0.1-0.4-0.2s-0.2-0.2-0.3-0.4C-96.7,481.5-96.8,481.4-96.8,481.3z M131,287.5
		c0.2,0,0.3,0.1,0.4,0.2c0.1,0.1,0.2,0.2,0.3,0.4c0.1,0.1,0.1,0.3,0.1,0.4s0,0.3,0,0.4c0,12.3,0,24.6,0,36.9c0,0.2,0,0.4-0.1,0.6
		c0,0.2-0.1,0.3-0.2,0.4c-0.1,0.1-0.2,0.2-0.4,0.3c-0.1,0.1-0.3,0.1-0.4,0.1c-0.1,0-0.3,0-0.4,0c-12.3,0-24.6,0-36.9,0
		c-0.2,0-0.4,0-0.6-0.1c-0.2,0-0.3-0.1-0.4-0.2s-0.2-0.2-0.3-0.4c-0.1-0.1-0.1-0.3-0.1-0.4s0-0.3,0-0.4c0-12.3,0-24.6,0-36.9
		c0-0.2,0-0.4,0.1-0.6c0-0.2,0.1-0.3,0.2-0.4s0.2-0.2,0.4-0.3c0.1-0.1,0.3-0.1,0.4-0.1s0.3,0,0.4,0c12.3,0,24.6,0,36.9,0
		C130.6,287.4,130.8,287.4,131,287.5z M156.1,324.2c-0.1-0.1-0.3-0.2-0.4-0.3c-0.1-0.1-0.2-0.2-0.2-0.3c0-0.1-0.1-0.2-0.1-0.4
		c-2.5-12-5.1-24-7.6-36.1c0-0.2-0.1-0.3-0.1-0.6c0-0.2,0.1-0.3,0.1-0.4c0.1-0.1,0.2-0.3,0.3-0.4s0.2-0.2,0.3-0.2s0.2-0.1,0.4-0.1
		c12-2.5,24-5.1,36.1-7.6c0.2,0,0.3-0.1,0.6-0.1c0.2,0,0.3,0.1,0.4,0.1c0.1,0.1,0.3,0.2,0.4,0.3c0.1,0.1,0.2,0.2,0.2,0.3
		c0,0.1,0.1,0.2,0.1,0.4c2.5,12,5.1,24,7.6,36.1c0,0.2,0.1,0.3,0.1,0.6c0,0.2-0.1,0.3-0.1,0.4c-0.1,0.1-0.2,0.3-0.3,0.4
		s-0.2,0.2-0.3,0.2s-0.2,0.1-0.4,0.1c-12,2.5-24,5.1-36.1,7.6c-0.2,0-0.3,0.1-0.6,0.1C156.4,324.4,156.2,324.3,156.1,324.2z
		 M-42.8,373.3c0-0.1,0-0.3,0-0.4c0-12.3,0-24.6,0-36.9c0-0.2,0-0.4,0.1-0.6c0-0.2,0.1-0.3,0.2-0.4c0.1-0.1,0.2-0.2,0.4-0.3
		c0.1-0.1,0.3-0.1,0.4-0.1c0.1,0,0.3,0,0.4,0c12.3,0,24.6,0,36.9,0c0.2,0,0.4,0,0.6,0.1c0.2,0,0.3,0.1,0.4,0.2
		c0.1,0.1,0.2,0.2,0.3,0.4c0.1,0.1,0.1,0.3,0.1,0.4s0,0.3,0,0.4c0,12.3,0,24.6,0,36.9c0,0.2,0,0.4-0.1,0.6c0,0.2-0.1,0.3-0.2,0.4
		c-0.1,0.1-0.2,0.2-0.4,0.3c-0.1,0.1-0.3,0.1-0.4,0.1c-0.1,0-0.3,0-0.4,0c-12.3,0-24.6,0-36.9,0c-0.2,0-0.4,0-0.6-0.1
		c-0.2,0-0.3-0.1-0.4-0.2c-0.1-0.1-0.2-0.2-0.3-0.4C-42.7,373.5-42.8,373.4-42.8,373.3z M50.7,402.8c0.1,0.1,0.1,0.3,0.1,0.4
		s0,0.3,0,0.4c0,12.3,0,24.6,0,36.9c0,0.2,0,0.4-0.1,0.6c0,0.2-0.1,0.3-0.2,0.4c-0.1,0.1-0.2,0.2-0.4,0.3c-0.1,0.1-0.3,0.1-0.4,0.1
		c-0.1,0-0.3,0-0.4,0c-12.3,0-24.6,0-36.9,0c-0.2,0-0.4,0-0.6-0.1c-0.2,0-0.3-0.1-0.4-0.2c-0.1-0.1-0.2-0.2-0.3-0.4
		c-0.1-0.1-0.1-0.3-0.1-0.4s0-0.3,0-0.4c0-12.3,0-24.6,0-36.9c0-0.2,0-0.4,0.1-0.6c0-0.2,0.1-0.3,0.2-0.4c0.1-0.1,0.2-0.2,0.4-0.3
		c0.1-0.1,0.3-0.1,0.4-0.1c0.1,0,0.3,0,0.4,0c12.3,0,24.6,0,36.9,0c0.2,0,0.4,0,0.6,0.1c0.2,0,0.3,0.1,0.4,0.2
		C50.5,402.6,50.6,402.7,50.7,402.8z M49.5,387.9c-12.3,0-24.6,0-36.9,0c-0.2,0-0.4,0-0.6-0.1c-0.2,0-0.3-0.1-0.4-0.2
		c-0.1-0.1-0.2-0.2-0.3-0.4c-0.1-0.1-0.1-0.3-0.1-0.4s0-0.3,0-0.4c0-12.3,0-24.6,0-36.9c0-0.2,0-0.4,0.1-0.6c0-0.2,0.1-0.3,0.2-0.4
		c0.1-0.1,0.2-0.2,0.4-0.3c0.1-0.1,0.3-0.1,0.4-0.1c0.1,0,0.3,0,0.4,0c12.3,0,24.6,0,36.9,0c0.2,0,0.4,0,0.6,0.1
		c0.2,0,0.3,0.1,0.4,0.2c0.1,0.1,0.2,0.2,0.3,0.4c0.1,0.1,0.1,0.3,0.1,0.4s0,0.3,0,0.4c0,12.3,0,24.6,0,36.9c0,0.2,0,0.4-0.1,0.6
		c0,0.2-0.1,0.3-0.2,0.4c-0.1,0.1-0.2,0.2-0.4,0.3c-0.1,0.1-0.3,0.1-0.4,0.1C49.7,387.9,49.6,387.9,49.5,387.9z M-58.2,428.3
		c-0.1,0-0.3,0-0.4,0c-12.3,0-24.6,0-36.9,0c-0.2,0-0.4,0-0.6-0.1c-0.2,0-0.3-0.1-0.4-0.2s-0.2-0.2-0.3-0.4
		c-0.1-0.1-0.1-0.3-0.1-0.4s0-0.3,0-0.4c0-12.3,0-24.6,0-36.9c0-0.2,0-0.4,0.1-0.6c0-0.2,0.1-0.3,0.2-0.4s0.2-0.2,0.4-0.3
		c0.1-0.1,0.3-0.1,0.4-0.1s0.3,0,0.4,0c12.3,0,24.6,0,36.9,0c0.2,0,0.4,0,0.6,0.1c0.2,0,0.3,0.1,0.4,0.2c0.1,0.1,0.2,0.2,0.3,0.4
		c0.1,0.1,0.1,0.3,0.1,0.4s0,0.3,0,0.4c0,12.3,0,24.6,0,36.9c0,0.2,0,0.4-0.1,0.6c0,0.2-0.1,0.3-0.2,0.4c-0.1,0.1-0.2,0.2-0.4,0.3
		C-57.9,428.3-58.1,428.3-58.2,428.3z M104,463c0.2,0,0.3,0.1,0.4,0.2s0.2,0.2,0.3,0.4c0.1,0.1,0.1,0.3,0.1,0.4s0,0.3,0,0.4
		c0,12.3,0,24.6,0,36.9c0,0.2,0,0.4-0.1,0.6c0,0.2-0.1,0.3-0.2,0.4s-0.2,0.2-0.4,0.3c-0.1,0.1-0.3,0.1-0.4,0.1s-0.3,0-0.4,0
		c-12.3,0-24.6,0-36.9,0c-0.2,0-0.4,0-0.6-0.1c-0.2,0-0.3-0.1-0.4-0.2s-0.2-0.2-0.3-0.4c-0.1-0.1-0.1-0.3-0.1-0.4s0-0.3,0-0.4
		c0-12.3,0-24.6,0-36.9c0-0.2,0-0.4,0.1-0.6c0-0.2,0.1-0.3,0.2-0.4s0.2-0.2,0.4-0.3c0.1-0.1,0.3-0.1,0.4-0.1s0.3,0,0.4,0
		c12.3,0,24.6,0,36.9,0C103.6,462.9,103.8,462.9,104,463z M158.7,456.9c0.1,0.1,0.1,0.3,0.1,0.4s0,0.3,0,0.4c0,12.3,0,24.6,0,36.9
		c0,0.2,0,0.4-0.1,0.6c0,0.2-0.1,0.3-0.2,0.4c-0.1,0.1-0.2,0.2-0.4,0.3c-0.1,0.1-0.3,0.1-0.4,0.1c-0.1,0-0.3,0-0.4,0
		c-12.3,0-24.6,0-36.9,0c-0.2,0-0.4,0-0.6-0.1c-0.2,0-0.3-0.1-0.4-0.2s-0.2-0.2-0.3-0.4c-0.1-0.1-0.1-0.3-0.1-0.4s0-0.3,0-0.4
		c0-12.3,0-24.6,0-36.9c0-0.2,0-0.4,0.1-0.6c0-0.2,0.1-0.3,0.2-0.4s0.2-0.2,0.4-0.3c0.1-0.1,0.3-0.1,0.4-0.1s0.3,0,0.4,0
		c12.3,0,24.6,0,36.9,0c0.2,0,0.4,0,0.6,0.1c0.2,0,0.3,0.1,0.4,0.2C158.5,456.6,158.6,456.7,158.7,456.9z M66.2,408.9
		c0.1,0,0.3,0,0.4,0c12.3,0,24.6,0,36.9,0c0.2,0,0.4,0,0.6,0.1c0.2,0,0.3,0.1,0.4,0.2s0.2,0.2,0.3,0.4c0.1,0.1,0.1,0.3,0.1,0.4
		s0,0.3,0,0.4c0,12.3,0,24.6,0,36.9c0,0.2,0,0.4-0.1,0.6c0,0.2-0.1,0.3-0.2,0.4s-0.2,0.2-0.4,0.3c-0.1,0.1-0.3,0.1-0.4,0.1
		s-0.3,0-0.4,0c-12.3,0-24.6,0-36.9,0c-0.2,0-0.4,0-0.6-0.1c-0.2,0-0.3-0.1-0.4-0.2s-0.2-0.2-0.3-0.4c-0.1-0.1-0.1-0.3-0.1-0.4
		s0-0.3,0-0.4c0-12.3,0-24.6,0-36.9c0-0.2,0-0.4,0.1-0.6c0-0.2,0.1-0.3,0.2-0.4s0.2-0.2,0.4-0.3C66,409,66.1,409,66.2,408.9z
		 M120.6,441.9c-0.2,0-0.4,0-0.6-0.1c-0.2,0-0.3-0.1-0.4-0.2s-0.2-0.2-0.3-0.4c-0.1-0.1-0.1-0.3-0.1-0.4s0-0.3,0-0.4
		c0-12.3,0-24.6,0-36.9c0-0.2,0-0.4,0.1-0.6c0-0.2,0.1-0.3,0.2-0.4s0.2-0.2,0.4-0.3c0.1-0.1,0.3-0.1,0.4-0.1s0.3,0,0.4,0
		c12.3,0,24.6,0,36.9,0c0.2,0,0.4,0,0.6,0.1c0.2,0,0.3,0.1,0.4,0.2c0.1,0.1,0.2,0.2,0.3,0.4c0.1,0.1,0.1,0.3,0.1,0.4s0,0.3,0,0.4
		c0,12.3,0,24.6,0,36.9c0,0.2,0,0.4-0.1,0.6c0,0.2-0.1,0.3-0.2,0.4c-0.1,0.1-0.2,0.2-0.4,0.3c-0.1,0.1-0.3,0.1-0.4,0.1
		c-0.1,0-0.3,0-0.4,0C145.2,441.9,132.9,441.9,120.6,441.9z M173.3,488.4c-0.1-0.1-0.1-0.3-0.1-0.4s0-0.3,0-0.4
		c0-12.3,0-24.6,0-36.9c0-0.2,0-0.4,0.1-0.6c0-0.2,0.1-0.3,0.2-0.4c0.1-0.1,0.2-0.2,0.4-0.3c0.1-0.1,0.3-0.1,0.4-0.1
		c0.1,0,0.3,0,0.4,0c12.3,0,24.6,0,36.9,0c0.2,0,0.4,0,0.6,0.1c0.2,0,0.3,0.1,0.4,0.2c0.1,0.1,0.2,0.2,0.3,0.4
		c0.1,0.1,0.1,0.3,0.1,0.4s0,0.3,0,0.4c0,12.3,0,24.6,0,36.9c0,0.2,0,0.4-0.1,0.6c0,0.2-0.1,0.3-0.2,0.4c-0.1,0.1-0.2,0.2-0.4,0.3
		c-0.1,0.1-0.3,0.1-0.4,0.1c-0.1,0-0.3,0-0.4,0c-12.3,0-24.6,0-36.9,0c-0.2,0-0.4,0-0.6-0.1c-0.2,0-0.3-0.1-0.4-0.2
		C173.5,488.7,173.4,488.6,173.3,488.4z M173.2,342.3c0-0.2,0.1-0.3,0.2-0.4c0.1-0.1,0.2-0.2,0.4-0.3c0.1-0.1,0.3-0.1,0.4-0.1
		c0.1,0,0.3,0,0.4,0c12.3,0,24.6,0,36.9,0c0.2,0,0.4,0,0.6,0.1c0.2,0,0.3,0.1,0.4,0.2c0.1,0.1,0.2,0.2,0.3,0.4
		c0.1,0.1,0.1,0.3,0.1,0.4s0,0.3,0,0.4c0,12.3,0,24.6,0,36.9c0,0.2,0,0.4-0.1,0.6c0,0.2-0.1,0.3-0.2,0.4c-0.1,0.1-0.2,0.2-0.4,0.3
		c-0.1,0.1-0.3,0.1-0.4,0.1c-0.1,0-0.3,0-0.4,0c-12.3,0-24.6,0-36.9,0c-0.2,0-0.4,0-0.6-0.1c-0.2,0-0.3-0.1-0.4-0.2
		c-0.1-0.1-0.2-0.2-0.3-0.4c-0.1-0.1-0.1-0.3-0.1-0.4s0-0.3,0-0.4c0-12.3,0-24.6,0-36.9C173.1,342.7,173.1,342.5,173.2,342.3z
		 M211.4,395.4c0.2,0,0.4,0,0.6,0.1c0.2,0,0.3,0.1,0.4,0.2c0.1,0.1,0.2,0.2,0.3,0.4c0.1,0.1,0.1,0.3,0.1,0.4s0,0.3,0,0.4
		c0,12.3,0,24.6,0,36.9c0,0.2,0,0.4-0.1,0.6c0,0.2-0.1,0.3-0.2,0.4c-0.1,0.1-0.2,0.2-0.4,0.3c-0.1,0.1-0.3,0.1-0.4,0.1
		c-0.1,0-0.3,0-0.4,0c-12.3,0-24.6,0-36.9,0c-0.2,0-0.4,0-0.6-0.1c-0.2,0-0.3-0.1-0.4-0.2c-0.1-0.1-0.2-0.2-0.3-0.4
		c-0.1-0.1-0.1-0.3-0.1-0.4s0-0.3,0-0.4c0-12.3,0-24.6,0-36.9c0-0.2,0-0.4,0.1-0.6c0-0.2,0.1-0.3,0.2-0.4c0.1-0.1,0.2-0.2,0.4-0.3
		c0.1-0.1,0.3-0.1,0.4-0.1c0.1,0,0.3,0,0.4,0C186.9,395.4,199.2,395.4,211.4,395.4z M-95.4,374.4c-0.2,0-0.4,0-0.6-0.1
		c-0.2,0-0.3-0.1-0.4-0.2s-0.2-0.2-0.3-0.4c-0.1-0.1-0.1-0.3-0.1-0.4s0-0.3,0-0.4c0-12.3,0-24.6,0-36.9c0-0.2,0-0.4,0.1-0.6
		c0-0.2,0.1-0.3,0.2-0.4s0.2-0.2,0.4-0.3c0.1-0.1,0.3-0.1,0.4-0.1s0.3,0,0.4,0c12.3,0,24.6,0,36.9,0c0.2,0,0.4,0,0.6,0.1
		c0.2,0,0.3,0.1,0.4,0.2c0.1,0.1,0.2,0.2,0.3,0.4c0.1,0.1,0.1,0.3,0.1,0.4s0,0.3,0,0.4c0,12.3,0,24.6,0,36.9c0,0.2,0,0.4-0.1,0.6
		c0,0.2-0.1,0.3-0.2,0.4c-0.1,0.1-0.2,0.2-0.4,0.3c-0.1,0.1-0.3,0.1-0.4,0.1c-0.1,0-0.3,0-0.4,0C-70.8,374.4-83.1,374.4-95.4,374.4z
		 M-42.8,427.3c0-0.1,0-0.3,0-0.4c0-12.3,0-24.6,0-36.9c0-0.2,0-0.4,0.1-0.6c0-0.2,0.1-0.3,0.2-0.4c0.1-0.1,0.2-0.2,0.4-0.3
		c0.1-0.1,0.3-0.1,0.4-0.1c0.1,0,0.3,0,0.4,0c12.3,0,24.6,0,36.9,0c0.2,0,0.4,0,0.6,0.1c0.2,0,0.3,0.1,0.4,0.2
		c0.1,0.1,0.2,0.2,0.3,0.4c0.1,0.1,0.1,0.3,0.1,0.4s0,0.3,0,0.4c0,12.3,0,24.6,0,36.9c0,0.2,0,0.4-0.1,0.6c0,0.2-0.1,0.3-0.2,0.4
		c-0.1,0.1-0.2,0.2-0.4,0.3c-0.1,0.1-0.3,0.1-0.4,0.1c-0.1,0-0.3,0-0.4,0c-12.3,0-24.6,0-36.9,0c-0.2,0-0.4,0-0.6-0.1
		c-0.2,0-0.3-0.1-0.4-0.2c-0.1-0.1-0.2-0.2-0.3-0.4C-42.7,427.5-42.8,427.4-42.8,427.3z M258.5,304c0.1,0.2,0.1,0.3,0.2,0.5
		c0,0.2,0,0.3,0,0.5c0,0.1-0.1,0.3-0.2,0.4s-0.2,0.2-0.3,0.3c-0.1,0.1-0.2,0.1-0.3,0.2c-11.2,5-22.5,9.9-33.7,14.9
		c-0.2,0.1-0.3,0.1-0.5,0.2c-0.2,0-0.3,0-0.5,0c-0.1,0-0.3-0.1-0.4-0.2c-0.1-0.1-0.2-0.2-0.3-0.3c-0.1-0.1-0.1-0.2-0.2-0.3
		c-5-11.2-9.9-22.5-14.9-33.7c-0.1-0.2-0.1-0.3-0.2-0.5c0-0.2,0-0.3,0-0.5c0-0.1,0.1-0.3,0.2-0.4c0.1-0.1,0.2-0.2,0.3-0.3
		c0.1-0.1,0.2-0.1,0.3-0.2c11.2-5,22.5-9.9,33.7-14.9c0.2-0.1,0.3-0.1,0.5-0.2c0.2,0,0.3,0,0.5,0c0.1,0,0.3,0.1,0.4,0.2
		c0.1,0.1,0.2,0.2,0.3,0.3c0.1,0.1,0.1,0.2,0.2,0.3C248.6,281.5,253.6,292.8,258.5,304z M103.5,394.6c-12.3,0-24.6,0-36.9,0
		c-0.2,0-0.4,0-0.6-0.1c-0.2,0-0.3-0.1-0.4-0.2s-0.2-0.2-0.3-0.4c-0.1-0.1-0.1-0.3-0.1-0.4s0-0.3,0-0.4c0-12.3,0-24.6,0-36.9
		c0-0.2,0-0.4,0.1-0.6c0-0.2,0.1-0.3,0.2-0.4s0.2-0.2,0.4-0.3c0.1-0.1,0.3-0.1,0.4-0.1s0.3,0,0.4,0c12.3,0,24.6,0,36.9,0
		c0.2,0,0.4,0,0.6,0.1c0.2,0,0.3,0.1,0.4,0.2s0.2,0.2,0.3,0.4c0.1,0.1,0.1,0.3,0.1,0.4s0,0.3,0,0.4c0,12.3,0,24.6,0,36.9
		c0,0.2,0,0.4-0.1,0.6c0,0.2-0.1,0.3-0.2,0.4s-0.2,0.2-0.4,0.3c-0.1,0.1-0.3,0.1-0.4,0.1C103.7,394.6,103.6,394.6,103.5,394.6z
		 M-42,482.3c-0.2,0-0.3-0.1-0.4-0.2c-0.1-0.1-0.2-0.2-0.3-0.4c-0.1-0.1-0.1-0.3-0.1-0.4s0-0.3,0-0.4c0-12.3,0-24.6,0-36.9
		c0-0.2,0-0.4,0.1-0.6c0-0.2,0.1-0.3,0.2-0.4c0.1-0.1,0.2-0.2,0.4-0.3c0.1-0.1,0.3-0.1,0.4-0.1c0.1,0,0.3,0,0.4,0
		c12.3,0,24.6,0,36.9,0c0.2,0,0.4,0,0.6,0.1c0.2,0,0.3,0.1,0.4,0.2c0.1,0.1,0.2,0.2,0.3,0.4c0.1,0.1,0.1,0.3,0.1,0.4s0,0.3,0,0.4
		c0,12.3,0,24.6,0,36.9c0,0.2,0,0.4-0.1,0.6c0,0.2-0.1,0.3-0.2,0.4c-0.1,0.1-0.2,0.2-0.4,0.3c-0.1,0.1-0.3,0.1-0.4,0.1
		c-0.1,0-0.3,0-0.4,0c-12.3,0-24.6,0-36.9,0C-41.6,482.4-41.8,482.4-42,482.3z M12.2,456.2c0.1,0,0.3,0,0.4,0c12.3,0,24.6,0,36.9,0
		c0.2,0,0.4,0,0.6,0.1c0.2,0,0.3,0.1,0.4,0.2c0.1,0.1,0.2,0.2,0.3,0.4c0.1,0.1,0.1,0.3,0.1,0.4s0,0.3,0,0.4c0,12.3,0,24.6,0,36.9
		c0,0.2,0,0.4-0.1,0.6c0,0.2-0.1,0.3-0.2,0.4c-0.1,0.1-0.2,0.2-0.4,0.3c-0.1,0.1-0.3,0.1-0.4,0.1c-0.1,0-0.3,0-0.4,0
		c-12.3,0-24.6,0-36.9,0c-0.2,0-0.4,0-0.6-0.1c-0.2,0-0.3-0.1-0.4-0.2c-0.1-0.1-0.2-0.2-0.3-0.4c-0.1-0.1-0.1-0.3-0.1-0.4
		s0-0.3,0-0.4c0-12.3,0-24.6,0-36.9c0-0.2,0-0.4,0.1-0.6c0-0.2,0.1-0.3,0.2-0.4c0.1-0.1,0.2-0.2,0.4-0.3
		C11.9,456.2,12.1,456.2,12.2,456.2z M119.2,386.8c0-0.1,0-0.3,0-0.4c0-12.3,0-24.6,0-36.9c0-0.2,0-0.4,0.1-0.6
		c0-0.2,0.1-0.3,0.2-0.4s0.2-0.2,0.4-0.3c0.1-0.1,0.3-0.1,0.4-0.1s0.3,0,0.4,0c12.3,0,24.6,0,36.9,0c0.2,0,0.4,0,0.6,0.1
		c0.2,0,0.3,0.1,0.4,0.2c0.1,0.1,0.2,0.2,0.3,0.4c0.1,0.1,0.1,0.3,0.1,0.4s0,0.3,0,0.4c0,12.3,0,24.6,0,36.9c0,0.2,0,0.4-0.1,0.6
		c0,0.2-0.1,0.3-0.2,0.4c-0.1,0.1-0.2,0.2-0.4,0.3c-0.1,0.1-0.3,0.1-0.4,0.1c-0.1,0-0.3,0-0.4,0c-12.3,0-24.6,0-36.9,0
		c-0.2,0-0.4,0-0.6-0.1c-0.2,0-0.3-0.1-0.4-0.2s-0.2-0.2-0.3-0.4C119.3,387,119.2,386.9,119.2,386.8z"/>
	<title>b&apos;Document&apos;</title>
</g>
</svg>
