<?xml version="1.0" encoding="utf-8"?>
<!-- Generator: Adobe Illustrator 22.0.0, SVG Export Plug-In . SVG Version: 6.00 Build 0)  -->
<svg version="1.1" id="Layer_1" xmlns="http://www.w3.org/2000/svg" xmlns:xlink="http://www.w3.org/1999/xlink" x="0px" y="0px"
	 width="335.7px" height="273.9px" viewBox="0 0 335.7 273.9" style="enable-background:new 0 0 335.7 273.9;" xml:space="preserve"
	>
<style type="text/css">
	.st0{fill:none;stroke:#191919;stroke-width:0.12;stroke-linecap:square;}
</style>
<g id="Part__Feature" transform="translate(126.899933,289.751431) scale(1,-1)">
	<path id="Part__Feature_f0000" class="st0" d="M11.5,53.6L11.5,53.6l0.2-0.3l0.3-0.3l0.3-0.3l0.3-0.3l0.4-0.2l0.3-0.2l0.4-0.1
		l0.4-0.1l0.3,0l105.7-11.1l47.7-21.1l0.1-0.1l0,0l0,0l0.3-0.1l0.4-0.1l0.3-0.1l0.4-0.1l0.4,0l0.2,0l0.4,0.1l0.4,0.1l0.4,0.2
		l0.4,0.2l0.3,0.3l0.3,0.3l0.2,0.3l0.2,0.3l0.2,0.3l0.1,0.3l32.1,72.5l0.1,0.3l0.1,0.4l0.1,0.4l0,0.4v166.5l0,0.2l0,0.4l0,0.4
		l-0.1,0.3l-0.1,0.4l-0.2,0.4l-0.1,0.2l-0.2,0.3l-0.3,0.3l-0.3,0.3l-0.4,0.3l-0.4,0.2L203,266l-0.3,0.1l-0.4,0.1l-0.4,0l-0.3,0h-50
		v2.8l0,0.2l0,0l0,0l0,0.3l0,0.4l-0.1,0.3l-0.1,0.4l-0.2,0.4l-0.1,0.2l-0.2,0.3l-0.3,0.3l-0.3,0.3l-0.4,0.3l-0.4,0.2l-0.4,0.2
		l-0.3,0.1l-0.4,0.1l-0.4,0l-0.3,0l-50,0l0,2.8l0,0.2l0,0l0,0l0,0.3l0,0.4l-0.1,0.3l-0.1,0.4l-0.2,0.4l-0.1,0.2l-0.2,0.3l-0.3,0.3
		l-0.3,0.3l-0.4,0.3l-0.4,0.2l-0.4,0.2l-0.3,0.1l-0.4,0.1l-0.4,0l-0.3,0h-50v2.8l0,0.2l0,0l0,0l0,0.3l0,0.4l-0.1,0.3l-0.1,0.4
		l-0.2,0.4l-0.1,0.2l-0.2,0.3l-0.3,0.3l-0.3,0.3l-0.4,0.3l-0.4,0.2l-0.4,0.2l-0.3,0.1l-0.4,0.1l-0.4,0l0,0l-0.3,0h-51.2l-0.2,0h0
		l0,0l-0.3,0l-0.4,0l-0.3-0.1l-0.4-0.1l-0.4-0.2l-0.2-0.1l-0.3-0.2l-0.3-0.3l-0.3-0.3l-0.3-0.4l-0.2-0.4l-0.2-0.4l-0.1-0.3l-0.1-0.4
		l0-0.4l0-0.3l0-2.8l-50.2,0l-0.4,0l-0.6-0.1l-0.4-0.1l-0.5-0.2l-0.4-0.2l-0.3-0.3l-0.3-0.4l-0.3-0.4l-0.2-0.4l-0.2-0.7l-0.1-0.4
		l0-0.4l0-0.3l0-9.5l-50.2,0l-0.4,0l-0.6-0.1l-0.4-0.1l-0.5-0.2l-0.4-0.2l-0.3-0.3l-0.3-0.4l-0.3-0.4l-0.2-0.4l-0.2-0.7l-0.1-0.4
		l0-0.4l0-0.3l0-159.3l0-0.4l0.1-0.6l0.1-0.4l0.2-0.5l0.2-0.4l0.3-0.3l0.4-0.3l0.4-0.3l0.4-0.2l0.7-0.2l0.4-0.1l0.4,0l0.3,0l105.1,0
		l25.9-45.3L11.5,53.6L11.5,53.6z M-69.3,155.7c0.1-1.5-1.6-3.3-3.1-3.1c-1.5-0.1-3.3,1.6-3.1,3.1c-0.1,1.5,1.6,3.3,3.1,3.1
		C-70.9,158.9-69.2,157.2-69.3,155.7z M-69.3,209.7c0.1-1.5-1.6-3.3-3.1-3.1c-1.5-0.1-3.3,1.6-3.1,3.1c-0.1,1.5,1.6,3.3,3.1,3.1
		C-70.9,212.9-69.2,211.2-69.3,209.7z M98.1,219.8c0.1-1.5-1.6-3.3-3.1-3.1c-1.5-0.1-3.3,1.6-3.1,3.1c-0.1,1.5,1.6,3.3,3.1,3.1
		C96.5,223,98.2,221.3,98.1,219.8z M98,108.4c0.1-1.5-1.6-3.3-3.1-3.1c-1.5-0.1-3.3,1.6-3.1,3.1c-0.1,1.5,1.6,3.3,3.1,3.1
		C96.5,111.7,98.2,109.9,98,108.4z"/>
	<title>b&apos;Document&apos;</title>
</g>
</svg>
