<?xml version="1.0" encoding="utf-8"?>
<!-- Generator: Adobe Illustrator 22.0.0, SVG Export Plug-In . SVG Version: 6.00 Build 0)  -->
<svg version="1.1"
	 id="Layer_1" xmlns:cc="http://creativecommons.org/ns#" xmlns:dc="http://purl.org/dc/elements/1.1/" xmlns:freecad="https://www.freecad.org/wiki/index.php?title=Svg_Namespace" xmlns:inkscape="http://www.inkscape.org/namespaces/inkscape" xmlns:rdf="http://www.w3.org/1999/02/22-rdf-syntax-ns#" xmlns:sodipodi="http://sodipodi.sourceforge.net/DTD/sodipodi-0.dtd" xmlns:svg="http://www.w3.org/2000/svg"
	 xmlns="http://www.w3.org/2000/svg" xmlns:xlink="http://www.w3.org/1999/xlink" x="0px" y="0px" width="66.4px" height="185.3px"
	 viewBox="0 0 66.4 185.3" style="enable-background:new 0 0 66.4 185.3;" xml:space="preserve">
<style type="text/css">
	.st0{fill:none;stroke:#000000;stroke-width:0.12;}
</style>
<title>FreeCAD SVG Export</title>
<desc>Drawing page: Page exported from FreeCAD document: Unnamed</desc>
<g>
	<path class="st0" d="M56.6,172.8c0.2,1.6-1.7,3.4-3.3,3.3c-1.6,0.2-3.4-1.7-3.3-3.3c-0.2-1.6,1.7-3.4,3.3-3.3
		C55,169.4,56.8,171.2,56.6,172.8z"/>
	<path class="st0" d="M15.8,154.7c0.2,1.6-1.7,3.4-3.3,3.3c-1.6,0.2-3.4-1.7-3.3-3.3c-0.2-1.6,1.7-3.4,3.3-3.3
		C14.1,151.3,15.9,153.1,15.8,154.7z"/>
	<path class="st0" d="M6.1,12.6v142.6c-0.1,2.1,1.4,4.4,3.4,5.2l42.4,18.8c1.6,0.8,3.9,0.6,5.4-0.4c1.5-0.9,2.6-2.9,2.6-4.7v-5.5
		V12.6c0.3-2.8-2.9-5.9-5.7-5.7H11.7C9,6.7,5.8,9.9,6.1,12.6z"/>
</g>
</svg>
