<?xml version="1.0" encoding="utf-8"?>
<!-- Generator: Adobe Illustrator 22.0.0, SVG Export Plug-In . SVG Version: 6.00 Build 0)  -->
<svg version="1.1" id="Layer_1" xmlns="http://www.w3.org/2000/svg" xmlns:xlink="http://www.w3.org/1999/xlink" x="0px" y="0px"
	 width="390.7px" height="274.9px" viewBox="0 0 390.7 274.9" style="enable-background:new 0 0 390.7 274.9;" xml:space="preserve"
	>
<style type="text/css">
	.st0{fill:none;stroke:#191919;stroke-width:0.12;stroke-linecap:square;}
</style>
<path id="Part__Feature_f0000" class="st0" d="M192.8,236.7L192.8,236.7l0.2,0.3l0.3,0.3l0.3,0.3l0.3,0.3l0.4,0.2l0.3,0.2l0.4,0.1
	l0.4,0.1h0.3l105.7,11.1l47.7,21.1l0.1,0.1l0,0l0,0l0.3,0.1l0.4,0.1l0.3,0.1l0.4,0.1h0.4h0.2l0.4-0.1l0.4-0.1l0.4-0.2l0.4-0.2
	l0.3-0.3l0.3-0.3l0.2-0.3l0.2-0.3l0.2-0.3l0.1-0.3l32.1-72.5l0.1-0.3l0.1-0.4l0.1-0.4v-0.4V28.3v-0.2v-0.4v-0.4l-0.1-0.3l-0.1-0.4
	l-0.2-0.4L386,26l-0.2-0.3l-0.3-0.3l-0.3-0.3l-0.4-0.3l-0.4-0.2l-0.4-0.2l-0.3-0.1l-0.4-0.1h-0.4h-0.3h-50v-2.8v-0.2l0,0l0,0v-0.3
	v-0.4l-0.1-0.3l-0.1-0.4l-0.2-0.4l-0.1-0.2l-0.2-0.3l-0.3-0.3l-0.3-0.3l-0.4-0.3l-0.4-0.2l-0.4-0.2l-0.3-0.1l-0.4-0.1H329h-0.3h-50
	v-2.8v-0.2l0,0l0,0v-0.3v-0.4l-0.1-0.3l-0.1-0.4l-0.2-0.4l-0.1-0.2l-0.2-0.3l-0.3-0.3l-0.3-0.3l-0.4-0.3l-0.4-0.2l-0.4-0.2l-0.3-0.1
	l-0.4-0.1h-0.4h-0.3h-50V7.8V7.6l0,0l0,0V7.3V6.9l-0.1-0.3l-0.1-0.4l-0.2-0.4l-0.1-0.2l-0.2-0.3L223.8,5l-0.3-0.3l-0.4-0.3l-0.4-0.2
	L222.3,4L222,3.9l-0.4-0.1h-0.4l0,0h-0.3h-51.2h-0.2l0,0l0,0h-0.3h-0.4l-0.3,0.1L168.1,4l-0.4,0.2l-0.2,0.1l-0.3,0.2l-0.3,0.3
	l-0.3,0.3l-0.3,0.4l-0.2,0.4l-0.2,0.4l-0.1,0.3L165.7,7v0.4v0.3v2.8h-50.2h-0.4l-0.6,0.1l-0.4,0.1l-0.5,0.2l-0.4,0.2l-0.3,0.3
	l-0.3,0.4l-0.3,0.4l-0.2,0.4l-0.2,0.7l-0.1,0.4v0.4v0.3v9.5H7.6H7.2L6.6,24l-0.4,0.1l-0.5,0.2l-0.4,0.2L5,24.8l-0.3,0.4l-0.3,0.4
	L4.2,26L4,26.7l-0.1,0.4v0.4v0.3v159.3v0.4l0.1,0.6l0.1,0.4l0.2,0.5l0.2,0.4l0.3,0.3l0.4,0.3l0.4,0.3l0.4,0.2l0.7,0.2l0.4,0.1h0.4H8
	h158.8l25.9,45.3L192.8,236.7L192.8,236.7z M63.5,134.7c0.1,1.5-1.6,3.3-3.1,3.1c-1.5,0.1-3.3-1.6-3.1-3.1c-0.1-1.5,1.6-3.3,3.1-3.1
	C61.9,131.4,63.6,133.1,63.5,134.7z M63.5,80.7c0.1,1.5-1.6,3.3-3.1,3.1c-1.5,0.1-3.3-1.6-3.1-3.1c-0.1-1.5,1.6-3.3,3.1-3.1
	C61.9,77.4,63.6,79.1,63.5,80.7z M279.4,70.5c0.1,1.5-1.6,3.3-3.1,3.1c-1.5,0.1-3.3-1.6-3.1-3.1c-0.1-1.5,1.6-3.3,3.1-3.1
	C277.9,67.3,279.6,69,279.4,70.5z M279.4,181.9c0.1,1.5-1.6,3.3-3.1,3.1c-1.5,0.1-3.3-1.6-3.1-3.1c-0.1-1.5,1.6-3.3,3.1-3.1
	C277.8,178.7,279.6,180.4,279.4,181.9z"/>
<title>b&apos;Document&apos;</title>
</svg>
