<?xml version="1.0" encoding="utf-8"?>
<!-- Generator: Adobe Illustrator 22.0.0, SVG Export Plug-In . SVG Version: 6.00 Build 0)  -->
<svg version="1.1" id="Layer_1" xmlns="http://www.w3.org/2000/svg" xmlns:xlink="http://www.w3.org/1999/xlink" x="0px" y="0px"
	 width="335.7px" height="274.2px" viewBox="0 0 335.7 274.2" style="enable-background:new 0 0 335.7 274.2;" xml:space="preserve"
	>
<style type="text/css">
	.st0{fill:none;stroke:#191919;stroke-width:0.12;stroke-linecap:square;}
</style>
<g id="Part__Feature" transform="translate(91.129643,289.749932) scale(1,-1)">
	<path id="Part__Feature_f0000" class="st0" d="M133.2,273c16.4,0,32.8,0,49.2,0c1.5-0.2,2.2-1.1,2.4-2.5c0-48.9,0-97.8,0-146.6
		c0.1-1.1,0.6-1.9,1.5-2.3c0.7-0.3,1.5-0.7,2.2-1c0.1,0,0.1-0.1,0.2-0.1c17-7.5,34-15.1,51-22.6c1.3-0.8,1.8-1.9,1.3-3.4
		c-10.9-24.7-21.9-49.4-32.8-74.1c-0.3-0.7-0.8-1.1-1.6-1.4c-0.6-0.2-1.2-0.1-1.7,0.1c-16.2,7.2-32.4,14.4-48.6,21.5
		c-0.3,0.1-0.5,0.1-0.8,0.2c-35.3,3.7-70.7,7.4-106,11.1c-0.9,0.1-1.5,0.5-1.9,1.3c-8.8,15.3-17.5,30.6-26.3,46
		c-35.4,0-70.8,0-106.3,0c-0.1,0-0.2,0-0.3,0c-1.5,0.2-2.4,1-2.6,2.6c0,0.1,0,0.2,0,0.3c0,53.9,0,107.8,0,161.7c0,1.2,0.7,2,1.9,2.5
		c0.2,0,0.5,0.1,0.7,0.1c17.1,0,34.3,0,51.4,0c0,3.6,0,7.3,0,10.9c0.2,1.5,1,2.4,2.6,2.6c17.1,0,34.3,0,51.4,0c0,1.4,0,2.8,0,4.2
		c0.2,1.5,1,2.4,2.6,2.6c18,0,36,0,54,0c1.5-0.2,2.4-1,2.6-2.6c0-1.4,0-2.8,0-4.2c17.1,0,34.3,0,51.4,0c1.5-0.2,2.4-1,2.6-2.6
		C133.2,275.8,133.2,274.4,133.2,273z M133.8,219.8c0.1,1.5-1.6,3.3-3.1,3.1c-1.5,0.1-3.3-1.6-3.1-3.1c-0.1-1.5,1.6-3.3,3.1-3.1
		C132.3,216.5,134,218.2,133.8,219.8z M-33.5,209.7c0.1,1.5-1.6,3.3-3.1,3.1c-1.5,0.1-3.3-1.6-3.1-3.1c-0.1-1.5,1.6-3.3,3.1-3.1
		C-35.1,206.4-33.4,208.1-33.5,209.7z M-33.5,155.7c0.1,1.5-1.6,3.3-3.1,3.1c-1.5,0.1-3.3-1.6-3.1-3.1c-0.1-1.5,1.6-3.3,3.1-3.1
		C-35.1,152.4-33.4,154.1-33.5,155.7z M133.8,108.4c0.1,1.5-1.6,3.3-3.1,3.1c-1.5,0.1-3.3-1.6-3.1-3.1c-0.1-1.5,1.6-3.3,3.1-3.1
		C132.2,105.1,133.9,106.9,133.8,108.4z M95.7,61.6c0.2,0,0.3,0.1,0.4,0.2c0.1,0.1,0.2,0.2,0.3,0.4c0.1,0.1,0.1,0.3,0.1,0.4
		c0,0.1,0,0.3,0,0.4c0,12.3,0,24.6,0,36.9c0,0.2,0,0.4-0.1,0.6c0,0.2-0.1,0.3-0.2,0.4s-0.2,0.2-0.4,0.3c-0.1,0.1-0.3,0.1-0.4,0.1
		s-0.3,0-0.4,0c-12.3,0-24.6,0-36.9,0c-0.2,0-0.4,0-0.6-0.1c-0.2,0-0.3-0.1-0.4-0.2c-0.1-0.1-0.2-0.2-0.3-0.4
		c-0.1-0.1-0.1-0.3-0.1-0.4s0-0.3,0-0.4c0-12.3,0-24.6,0-36.9c0-0.2,0-0.4,0.1-0.6c0-0.2,0.1-0.3,0.2-0.4c0.1-0.1,0.2-0.2,0.4-0.3
		c0.1-0.1,0.3-0.1,0.4-0.1c0.1,0,0.3,0,0.4,0c12.3,0,24.6,0,36.9,0C95.3,61.6,95.5,61.6,95.7,61.6z M120.8,98.4
		c-0.1-0.1-0.3-0.2-0.4-0.3c-0.1-0.1-0.2-0.2-0.2-0.3c0-0.1-0.1-0.2-0.1-0.4c-2.5-12-5.1-24-7.6-36.1c0-0.2-0.1-0.3-0.1-0.6
		c0-0.2,0.1-0.3,0.1-0.4c0.1-0.1,0.2-0.3,0.3-0.4c0.1-0.1,0.2-0.2,0.3-0.2c0.1,0,0.2-0.1,0.4-0.1c12-2.5,24-5.1,36.1-7.6
		c0.2,0,0.3-0.1,0.6-0.1c0.2,0,0.3,0.1,0.4,0.1c0.1,0.1,0.3,0.2,0.4,0.3c0.1,0.1,0.2,0.2,0.2,0.3s0.1,0.2,0.1,0.4
		c2.5,12,5.1,24,7.6,36.1c0,0.2,0.1,0.3,0.1,0.6c0,0.2-0.1,0.3-0.1,0.4c-0.1,0.1-0.2,0.3-0.3,0.4s-0.2,0.2-0.3,0.2s-0.2,0.1-0.4,0.1
		c-12,2.5-24,5.1-36.1,7.6c-0.2,0-0.3,0.1-0.6,0.1C121.1,98.5,121,98.5,120.8,98.4z M-78.1,147.5c0-0.1,0-0.3,0-0.4
		c0-12.3,0-24.6,0-36.9c0-0.2,0-0.4,0.1-0.6c0-0.2,0.1-0.3,0.2-0.4s0.2-0.2,0.4-0.3c0.1-0.1,0.3-0.1,0.4-0.1s0.3,0,0.4,0
		c12.3,0,24.6,0,36.9,0c0.2,0,0.4,0,0.6,0.1c0.2,0,0.3,0.1,0.4,0.2c0.1,0.1,0.2,0.2,0.3,0.4c0.1,0.1,0.1,0.3,0.1,0.4s0,0.3,0,0.4
		c0,12.3,0,24.6,0,36.9c0,0.2,0,0.4-0.1,0.6c0,0.2-0.1,0.3-0.2,0.4c-0.1,0.1-0.2,0.2-0.4,0.3c-0.1,0.1-0.3,0.1-0.4,0.1
		c-0.1,0-0.3,0-0.4,0c-12.3,0-24.6,0-36.9,0c-0.2,0-0.4,0-0.6-0.1c-0.2,0-0.3-0.1-0.4-0.2c-0.1-0.1-0.2-0.2-0.3-0.4
		C-78,147.7-78.1,147.6-78.1,147.5z M15.4,177c0.1,0.1,0.1,0.3,0.1,0.4c0,0.1,0,0.3,0,0.4c0,12.3,0,24.6,0,36.9c0,0.2,0,0.4-0.1,0.6
		c0,0.2-0.1,0.3-0.2,0.4c-0.1,0.1-0.2,0.2-0.4,0.3c-0.1,0.1-0.3,0.1-0.4,0.1c-0.1,0-0.3,0-0.4,0c-12.3,0-24.6,0-36.9,0
		c-0.2,0-0.4,0-0.6-0.1c-0.2,0-0.3-0.1-0.4-0.2c-0.1-0.1-0.2-0.2-0.3-0.4c-0.1-0.1-0.1-0.3-0.1-0.4c0-0.1,0-0.3,0-0.4
		c0-12.3,0-24.6,0-36.9c0-0.2,0-0.4,0.1-0.6c0-0.2,0.1-0.3,0.2-0.4c0.1-0.1,0.2-0.2,0.4-0.3c0.1-0.1,0.3-0.1,0.4-0.1s0.3,0,0.4,0
		c12.3,0,24.6,0,36.9,0c0.2,0,0.4,0,0.6,0.1c0.2,0,0.3,0.1,0.4,0.2S15.4,176.8,15.4,177z M14.2,162c-12.3,0-24.6,0-36.9,0
		c-0.2,0-0.4,0-0.6-0.1c-0.2,0-0.3-0.1-0.4-0.2c-0.1-0.1-0.2-0.2-0.3-0.4c-0.1-0.1-0.1-0.3-0.1-0.4c0-0.1,0-0.3,0-0.4
		c0-12.3,0-24.6,0-36.9c0-0.2,0-0.4,0.1-0.6c0-0.2,0.1-0.3,0.2-0.4s0.2-0.2,0.4-0.3c0.1-0.1,0.3-0.1,0.4-0.1s0.3,0,0.4,0
		c12.3,0,24.6,0,36.9,0c0.2,0,0.4,0,0.6,0.1c0.2,0,0.3,0.1,0.4,0.2c0.1,0.1,0.2,0.2,0.3,0.4c0.1,0.1,0.1,0.3,0.1,0.4s0,0.3,0,0.4
		c0,12.3,0,24.6,0,36.9c0,0.2,0,0.4-0.1,0.6c0,0.2-0.1,0.3-0.2,0.4c-0.1,0.1-0.2,0.2-0.4,0.3c-0.1,0.1-0.3,0.1-0.4,0.1
		C14.4,162,14.3,162,14.2,162z M68.7,237.1c0.2,0,0.3,0.1,0.4,0.2c0.1,0.1,0.2,0.2,0.3,0.4c0.1,0.1,0.1,0.3,0.1,0.4
		c0,0.1,0,0.3,0,0.4c0,12.3,0,24.6,0,36.9c0,0.2,0,0.4-0.1,0.6c0,0.2-0.1,0.3-0.2,0.4s-0.2,0.2-0.4,0.3c-0.1,0.1-0.3,0.1-0.4,0.1
		s-0.3,0-0.4,0c-12.3,0-24.6,0-36.9,0c-0.2,0-0.4,0-0.6-0.1c-0.2,0-0.3-0.1-0.4-0.2s-0.2-0.2-0.3-0.4c-0.1-0.1-0.1-0.3-0.1-0.4
		s0-0.3,0-0.4c0-12.3,0-24.6,0-36.9c0-0.2,0-0.4,0.1-0.6c0-0.2,0.1-0.3,0.2-0.4c0.1-0.1,0.2-0.2,0.4-0.3c0.1-0.1,0.3-0.1,0.4-0.1
		s0.3,0,0.4,0c12.3,0,24.6,0,36.9,0C68.3,237.1,68.5,237.1,68.7,237.1z M123.4,231c0.1,0.1,0.1,0.3,0.1,0.4c0,0.1,0,0.3,0,0.4
		c0,12.3,0,24.6,0,36.9c0,0.2,0,0.4-0.1,0.6c0,0.2-0.1,0.3-0.2,0.4s-0.2,0.2-0.4,0.3c-0.1,0.1-0.3,0.1-0.4,0.1s-0.3,0-0.4,0
		c-12.3,0-24.6,0-36.9,0c-0.2,0-0.4,0-0.6-0.1c-0.2,0-0.3-0.1-0.4-0.2s-0.2-0.2-0.3-0.4c-0.1-0.1-0.1-0.3-0.1-0.4s0-0.3,0-0.4
		c0-12.3,0-24.6,0-36.9c0-0.2,0-0.4,0.1-0.6c0-0.2,0.1-0.3,0.2-0.4c0.1-0.1,0.2-0.2,0.4-0.3c0.1-0.1,0.3-0.1,0.4-0.1s0.3,0,0.4,0
		c12.3,0,24.6,0,36.9,0c0.2,0,0.4,0,0.6,0.1c0.2,0,0.3,0.1,0.4,0.2C123.2,230.7,123.3,230.8,123.4,231z M30.9,183.1
		c0.1,0,0.3,0,0.4,0c12.3,0,24.6,0,36.9,0c0.2,0,0.4,0,0.6,0.1c0.2,0,0.3,0.1,0.4,0.2c0.1,0.1,0.2,0.2,0.3,0.4
		c0.1,0.1,0.1,0.3,0.1,0.4c0,0.1,0,0.3,0,0.4c0,12.3,0,24.6,0,36.9c0,0.2,0,0.4-0.1,0.6c0,0.2-0.1,0.3-0.2,0.4
		c-0.1,0.1-0.2,0.2-0.4,0.3c-0.1,0.1-0.3,0.1-0.4,0.1s-0.3,0-0.4,0c-12.3,0-24.6,0-36.9,0c-0.2,0-0.4,0-0.6-0.1
		c-0.2,0-0.3-0.1-0.4-0.2c-0.1-0.1-0.2-0.2-0.3-0.4c-0.1-0.1-0.1-0.3-0.1-0.4c0-0.1,0-0.3,0-0.4c0-12.3,0-24.6,0-36.9
		c0-0.2,0-0.4,0.1-0.6c0-0.2,0.1-0.3,0.2-0.4c0.1-0.1,0.2-0.2,0.4-0.3C30.7,183.1,30.8,183.1,30.9,183.1z M85.3,216
		c-0.2,0-0.4,0-0.6-0.1c-0.2,0-0.3-0.1-0.4-0.2c-0.1-0.1-0.2-0.2-0.3-0.4c-0.1-0.1-0.1-0.3-0.1-0.4c0-0.1,0-0.3,0-0.4
		c0-12.3,0-24.6,0-36.9c0-0.2,0-0.4,0.1-0.6c0-0.2,0.1-0.3,0.2-0.4c0.1-0.1,0.2-0.2,0.4-0.3c0.1-0.1,0.3-0.1,0.4-0.1s0.3,0,0.4,0
		c12.3,0,24.6,0,36.9,0c0.2,0,0.4,0,0.6,0.1c0.2,0,0.3,0.1,0.4,0.2c0.1,0.1,0.2,0.2,0.3,0.4c0.1,0.1,0.1,0.3,0.1,0.4
		c0,0.1,0,0.3,0,0.4c0,12.3,0,24.6,0,36.9c0,0.2,0,0.4-0.1,0.6c0,0.2-0.1,0.3-0.2,0.4c-0.1,0.1-0.2,0.2-0.4,0.3
		c-0.1,0.1-0.3,0.1-0.4,0.1s-0.3,0-0.4,0C109.9,216,97.6,216,85.3,216z M138,262.6c-0.1-0.1-0.1-0.3-0.1-0.4s0-0.3,0-0.4
		c0-12.3,0-24.6,0-36.9c0-0.2,0-0.4,0.1-0.6c0-0.2,0.1-0.3,0.2-0.4c0.1-0.1,0.2-0.2,0.4-0.3c0.1-0.1,0.3-0.1,0.4-0.1
		c0.1,0,0.3,0,0.4,0c12.3,0,24.6,0,36.9,0c0.2,0,0.4,0,0.6,0.1c0.2,0,0.3,0.1,0.4,0.2c0.1,0.1,0.2,0.2,0.3,0.4
		c0.1,0.1,0.1,0.3,0.1,0.4c0,0.1,0,0.3,0,0.4c0,12.3,0,24.6,0,36.9c0,0.2,0,0.4-0.1,0.6c0,0.2-0.1,0.3-0.2,0.4
		c-0.1,0.1-0.2,0.2-0.4,0.3c-0.1,0.1-0.3,0.1-0.4,0.1c-0.1,0-0.3,0-0.4,0c-12.3,0-24.6,0-36.9,0c-0.2,0-0.4,0-0.6-0.1
		c-0.2,0-0.3-0.1-0.4-0.2C138.2,262.9,138.1,262.7,138,262.6z M137.9,116.4c0-0.2,0.1-0.3,0.2-0.4c0.1-0.1,0.2-0.2,0.4-0.3
		c0.1-0.1,0.3-0.1,0.4-0.1c0.1,0,0.3,0,0.4,0c12.3,0,24.6,0,36.9,0c0.2,0,0.4,0,0.6,0.1c0.2,0,0.3,0.1,0.4,0.2
		c0.1,0.1,0.2,0.2,0.3,0.4c0.1,0.1,0.1,0.3,0.1,0.4s0,0.3,0,0.4c0,12.3,0,24.6,0,36.9c0,0.2,0,0.4-0.1,0.6c0,0.2-0.1,0.3-0.2,0.4
		c-0.1,0.1-0.2,0.2-0.4,0.3c-0.1,0.1-0.3,0.1-0.4,0.1c-0.1,0-0.3,0-0.4,0c-12.3,0-24.6,0-36.9,0c-0.2,0-0.4,0-0.6-0.1
		c-0.2,0-0.3-0.1-0.4-0.2c-0.1-0.1-0.2-0.2-0.3-0.4c-0.1-0.1-0.1-0.3-0.1-0.4c0-0.1,0-0.3,0-0.4c0-12.3,0-24.6,0-36.9
		C137.8,116.8,137.8,116.6,137.9,116.4z M176.2,169.6c0.2,0,0.4,0,0.6,0.1c0.2,0,0.3,0.1,0.4,0.2c0.1,0.1,0.2,0.2,0.3,0.4
		c0.1,0.1,0.1,0.3,0.1,0.4c0,0.1,0,0.3,0,0.4c0,12.3,0,24.6,0,36.9c0,0.2,0,0.4-0.1,0.6c0,0.2-0.1,0.3-0.2,0.4
		c-0.1,0.1-0.2,0.2-0.4,0.3c-0.1,0.1-0.3,0.1-0.4,0.1c-0.1,0-0.3,0-0.4,0c-12.3,0-24.6,0-36.9,0c-0.2,0-0.4,0-0.6-0.1
		c-0.2,0-0.3-0.1-0.4-0.2c-0.1-0.1-0.2-0.2-0.3-0.4c-0.1-0.1-0.1-0.3-0.1-0.4c0-0.1,0-0.3,0-0.4c0-12.3,0-24.6,0-36.9
		c0-0.2,0-0.4,0.1-0.6c0-0.2,0.1-0.3,0.2-0.4c0.1-0.1,0.2-0.2,0.4-0.3c0.1-0.1,0.3-0.1,0.4-0.1c0.1,0,0.3,0,0.4,0
		C151.6,169.6,163.9,169.6,176.2,169.6z M-78.1,201.5c0-0.1,0-0.3,0-0.4c0-12.3,0-24.6,0-36.9c0-0.2,0-0.4,0.1-0.6
		c0-0.2,0.1-0.3,0.2-0.4c0.1-0.1,0.2-0.2,0.4-0.3c0.1-0.1,0.3-0.1,0.4-0.1s0.3,0,0.4,0c12.3,0,24.6,0,36.9,0c0.2,0,0.4,0,0.6,0.1
		c0.2,0,0.3,0.1,0.4,0.2c0.1,0.1,0.2,0.2,0.3,0.4c0.1,0.1,0.1,0.3,0.1,0.4c0,0.1,0,0.3,0,0.4c0,12.3,0,24.6,0,36.9
		c0,0.2,0,0.4-0.1,0.6c0,0.2-0.1,0.3-0.2,0.4c-0.1,0.1-0.2,0.2-0.4,0.3c-0.1,0.1-0.3,0.1-0.4,0.1c-0.1,0-0.3,0-0.4,0
		c-12.3,0-24.6,0-36.9,0c-0.2,0-0.4,0-0.6-0.1c-0.2,0-0.3-0.1-0.4-0.2c-0.1-0.1-0.2-0.2-0.3-0.4C-78,201.7-78.1,201.6-78.1,201.5z
		 M68.2,168.7c-12.3,0-24.6,0-36.9,0c-0.2,0-0.4,0-0.6-0.1c-0.2,0-0.3-0.1-0.4-0.2c-0.1-0.1-0.2-0.2-0.3-0.4
		c-0.1-0.1-0.1-0.3-0.1-0.4c0-0.1,0-0.3,0-0.4c0-12.3,0-24.6,0-36.9c0-0.2,0-0.4,0.1-0.6c0-0.2,0.1-0.3,0.2-0.4
		c0.1-0.1,0.2-0.2,0.4-0.3c0.1-0.1,0.3-0.1,0.4-0.1s0.3,0,0.4,0c12.3,0,24.6,0,36.9,0c0.2,0,0.4,0,0.6,0.1c0.2,0,0.3,0.1,0.4,0.2
		c0.1,0.1,0.2,0.2,0.3,0.4c0.1,0.1,0.1,0.3,0.1,0.4c0,0.1,0,0.3,0,0.4c0,12.3,0,24.6,0,36.9c0,0.2,0,0.4-0.1,0.6
		c0,0.2-0.1,0.3-0.2,0.4c-0.1,0.1-0.2,0.2-0.4,0.3c-0.1,0.1-0.3,0.1-0.4,0.1C68.4,168.7,68.3,168.7,68.2,168.7z M-77.3,256.4
		c-0.2,0-0.3-0.1-0.4-0.2s-0.2-0.2-0.3-0.4c-0.1-0.1-0.1-0.3-0.1-0.4c0-0.1,0-0.3,0-0.4c0-12.3,0-24.6,0-36.9c0-0.2,0-0.4,0.1-0.6
		c0-0.2,0.1-0.3,0.2-0.4c0.1-0.1,0.2-0.2,0.4-0.3c0.1-0.1,0.3-0.1,0.4-0.1s0.3,0,0.4,0c12.3,0,24.6,0,36.9,0c0.2,0,0.4,0,0.6,0.1
		c0.2,0,0.3,0.1,0.4,0.2c0.1,0.1,0.2,0.2,0.3,0.4c0.1,0.1,0.1,0.3,0.1,0.4c0,0.1,0,0.3,0,0.4c0,12.3,0,24.6,0,36.9
		c0,0.2,0,0.4-0.1,0.6c0,0.2-0.1,0.3-0.2,0.4c-0.1,0.1-0.2,0.2-0.4,0.3c-0.1,0.1-0.3,0.1-0.4,0.1c-0.1,0-0.3,0-0.4,0
		c-12.3,0-24.6,0-36.9,0C-76.9,256.5-77.1,256.5-77.3,256.4z M-23.1,230.3c0.1,0,0.3,0,0.4,0c12.3,0,24.6,0,36.9,0
		c0.2,0,0.4,0,0.6,0.1c0.2,0,0.3,0.1,0.4,0.2c0.1,0.1,0.2,0.2,0.3,0.4c0.1,0.1,0.1,0.3,0.1,0.4c0,0.1,0,0.3,0,0.4
		c0,12.3,0,24.6,0,36.9c0,0.2,0,0.4-0.1,0.6c0,0.2-0.1,0.3-0.2,0.4c-0.1,0.1-0.2,0.2-0.4,0.3c-0.1,0.1-0.3,0.1-0.4,0.1
		c-0.1,0-0.3,0-0.4,0c-12.3,0-24.6,0-36.9,0c-0.2,0-0.4,0-0.6-0.1c-0.2,0-0.3-0.1-0.4-0.2s-0.2-0.2-0.3-0.4
		c-0.1-0.1-0.1-0.3-0.1-0.4s0-0.3,0-0.4c0-12.3,0-24.6,0-36.9c0-0.2,0-0.4,0.1-0.6c0-0.2,0.1-0.3,0.2-0.4c0.1-0.1,0.2-0.2,0.4-0.3
		C-23.3,230.4-23.2,230.4-23.1,230.3z M83.9,161c0-0.1,0-0.3,0-0.4c0-12.3,0-24.6,0-36.9c0-0.2,0-0.4,0.1-0.6c0-0.2,0.1-0.3,0.2-0.4
		s0.2-0.2,0.4-0.3c0.1-0.1,0.3-0.1,0.4-0.1s0.3,0,0.4,0c12.3,0,24.6,0,36.9,0c0.2,0,0.4,0,0.6,0.1c0.2,0,0.3,0.1,0.4,0.2
		s0.2,0.2,0.3,0.4c0.1,0.1,0.1,0.3,0.1,0.4s0,0.3,0,0.4c0,12.3,0,24.6,0,36.9c0,0.2,0,0.4-0.1,0.6c0,0.2-0.1,0.3-0.2,0.4
		c-0.1,0.1-0.2,0.2-0.4,0.3c-0.1,0.1-0.3,0.1-0.4,0.1s-0.3,0-0.4,0c-12.3,0-24.6,0-36.9,0c-0.2,0-0.4,0-0.6-0.1
		c-0.2,0-0.3-0.1-0.4-0.2c-0.1-0.1-0.2-0.2-0.3-0.4C84,161.2,83.9,161.1,83.9,161z M223.4,78.7c0,0.2,0,0.3,0,0.5
		c0,0.1-0.1,0.3-0.2,0.4c-0.1,0.1-0.2,0.2-0.3,0.3c-0.1,0.1-0.2,0.1-0.3,0.2c-11.2,5-22.5,9.9-33.7,14.9c-0.2,0.1-0.3,0.1-0.5,0.2
		c-0.2,0-0.3,0-0.5,0c-0.1,0-0.3-0.1-0.4-0.2c-0.1-0.1-0.2-0.2-0.3-0.3c-0.1-0.1-0.1-0.2-0.2-0.3c-5-11.4-10-22.6-15-33.9
		c-0.1-0.2-0.1-0.3-0.2-0.5c0-0.2,0-0.3,0-0.5c0-0.1,0.1-0.3,0.2-0.4c0.1-0.1,0.2-0.2,0.3-0.3s0.2-0.1,0.3-0.2
		c11.2-5,22.5-9.9,33.7-14.9c0.2-0.1,0.3-0.1,0.5-0.2c0.2,0,0.3,0,0.5,0c0.1,0,0.3,0.1,0.4,0.2c0.1,0.1,0.2,0.2,0.3,0.3
		s0.1,0.2,0.2,0.3c5,11.2,9.9,22.5,14.9,33.7C223.3,78.3,223.4,78.5,223.4,78.7z"/>
	<title>b&apos;Document&apos;</title>
</g>
</svg>
